<svg xmlns="http://www.w3.org/2000/svg" viewBox="0 0 499.21 104.96"><title>droom-black_1</title><g id="Camada_2" data-name="Camada 2"><g id="Camada_3" data-name="Camada 3"><path d="M0,102.24V2.72H37A38.89,38.89,0,0,1,57.13,8.15,40.78,40.78,0,0,1,71.79,22.81,38.89,38.89,0,0,1,77.22,42.9V62.06a38.88,38.88,0,0,1-5.43,20.09A40.76,40.76,0,0,1,57.13,96.81,38.87,38.87,0,0,1,37,102.24Z"/><path d="M211.49,20.74A41.46,41.46,0,0,1,226.58,5.58a41.6,41.6,0,0,1,41.61,0,41.46,41.46,0,0,1,15.09,15.16,40.5,40.5,0,0,1,5.58,20.73v22a40.5,40.5,0,0,1-5.58,20.73,41.45,41.45,0,0,1-15.09,15.16,41.61,41.61,0,0,1-41.61,0,41.45,41.45,0,0,1-15.09-15.16,40.51,40.51,0,0,1-5.58-20.73v-22A40.51,40.51,0,0,1,211.49,20.74Zm24.74,54.48a14.18,14.18,0,0,0,11.15,4.86,14,14,0,0,0,11-4.86,17.11,17.11,0,0,0,4.29-11.73V41.33A16.78,16.78,0,0,0,258.4,29.6a14.21,14.21,0,0,0-11-4.72,14.37,14.37,0,0,0-11.15,4.72,16.79,16.79,0,0,0-4.29,11.73V63.49A17.11,17.11,0,0,0,236.23,75.22Z"/><path d="M317.31,20.74A41.46,41.46,0,0,1,332.4,5.58a41.6,41.6,0,0,1,41.61,0A41.46,41.46,0,0,1,389.1,20.74a40.5,40.5,0,0,1,5.58,20.73v22a40.5,40.5,0,0,1-5.58,20.73A41.45,41.45,0,0,1,374,99.39a41.61,41.61,0,0,1-41.61,0,41.45,41.45,0,0,1-15.09-15.16,40.51,40.51,0,0,1-5.58-20.73v-22A40.51,40.51,0,0,1,317.31,20.74Zm24.74,54.48a14.18,14.18,0,0,0,11.15,4.86,14,14,0,0,0,11-4.86,17.11,17.11,0,0,0,4.29-11.73V41.33a16.78,16.78,0,0,0-4.29-11.73,14.21,14.21,0,0,0-11-4.72,14.37,14.37,0,0,0-11.15,4.72,16.79,16.79,0,0,0-4.29,11.73V63.49A17.11,17.11,0,0,0,342.05,75.22Z"/><path d="M418.84,2.57h5.72l34.75,61.49L493.92,2.57h5.29V102.1H418.84ZM424.13,97h69.78V13.3L461.74,69.93h-5l-32.6-57.49Z"/><path d="M157.44,66.92a32.31,32.31,0,0,0,17.3-11.65,31.56,31.56,0,0,0,6.86-19.95,32.33,32.33,0,0,0-4.29-16.45,30.91,30.91,0,0,0-12-11.73Q157.44,2.72,145,2.72H106.25v99.53h76.5ZM111.54,8h33.6q10.15,0,16.44,3.15A25.38,25.38,0,0,1,172.46,21a27.26,27.26,0,0,1,3.86,14.3A26.53,26.53,0,0,1,170,52.77a27.36,27.36,0,0,1-15.87,9.58l-5.86.43H111.54Zm0,60.07h35.89l4.43-.14,20.88,29h-61.2Z"/></g></g></svg>